<?xml version="1.0" encoding="utf-8"?>
<!-- Generator: Adobe Illustrator 27.5.0, SVG Export Plug-In . SVG Version: 6.00 Build 0)  -->
<svg version="1.1" xmlns="http://www.w3.org/2000/svg" xmlns:xlink="http://www.w3.org/1999/xlink" x="0px" y="0px"
	 viewBox="0 0 500 500" style="enable-background:new 0 0 500 500;" xml:space="preserve">
<g id="BACKGROUND">
	<rect style="fill:#FFFFFF;" width="500" height="500"/>
</g>
<g id="OBJECTS">
	<path style="fill:#F2FFFF;" d="M313.524,383.803c-64.326,9.306-137.587,3.922-186.683-38.844
		c-49.097-42.766-71.043-116.148-48.937-177.527c22.106-61.379,89.37-104.365,153.524-93.928c20.235,3.292,40.8,12.31,51.891,29.623
		c9.755,15.227,12.441,36.635,28.368,45.121c18.376,9.79,39.863-4.743,60.554-6.895c16.843-1.751,33.897,5.27,46.407,16.73
		c12.51,11.461,20.795,26.998,25.839,43.232c12.956,41.701,4.531,89.495-21.895,124.193
		C396.167,360.207,355.406,377.744,313.524,383.803z"/>
	<ellipse style="fill:#ABD4ED;" cx="255.853" cy="448.898" rx="157.352" ry="24.421"/>
	<g>
		<g>
			<g>
				<defs>
					<path id="SVGID_1_" d="M142.837,243.134c0,0-1.927-6.696,0.256-14.149c2.182-7.452,32.069-43.371,50.659-55.277
						c18.59-11.907,39.381-14.547,39.381-14.547s36.779-3.933,50.055,1.592c13.276,5.525,30.23,27.98,30.23,27.98
						c9.113,16.01,19.457,27.341,13.229,38.849c-4.535,8.38-14.97,11.682-23.735,7.944c-5.711-2.436-10.96-5.968-15.975-10.055
						l-74.442,5.433l-6.216-6.594l-16.566,16.063L142.837,243.134z"/>
				</defs>
				<use xlink:href="#SVGID_1_"  style="overflow:visible;fill:#FF911F;"/>
				<clipPath id="SVGID_00000172411420267460474740000009022642098479964288_">
					<use xlink:href="#SVGID_1_"  style="overflow:visible;"/>
				</clipPath>
				<g style="clip-path:url(#SVGID_00000172411420267460474740000009022642098479964288_);">
					<path style="fill:#FFC248;" d="M276.063,155.982c5.872,4.593,10.198,10.445,11.107,17.845
						c8.416,4.936,15.105,12.897,20.999,20.673c0.662-2.814,2.288-5.274,3.783-7.748c1.495-2.474,2.644-5.5,1.648-8.214
						c-0.393-1.071-1.091-1.999-1.781-2.909c-4.293-5.664-8.723-11.392-14.556-15.453c-5.833-4.061-13.387-6.267-20.164-4.126"/>
					<path style="fill:#FFC248;" d="M191.139,173.045c1.666,2.058,2.768,4.569,3.154,7.188
						c-12.706,8.637-24.088,19.456-32.899,32.654c3.341,1.024,6.149,2.83,9.036,4.798c-4.116-1.165-6.847-1.286-11.112-0.964
						c-8.233,0.62-12.37,12.656-11.961,20.902c-3.38,3.106-6.836,6.27-10.216,9.376c0.88-13.192,2.654-26.775,9.397-38.147
						c4.915-8.29,12.172-14.89,19.319-21.356c3.597-3.255,7.225-6.532,11.391-9.019c4.165-2.487,8.956-4.16,13.8-3.9"/>
				</g>
				
					<use xlink:href="#SVGID_1_"  style="overflow:visible;fill:none;stroke:#1E2842;stroke-width:2;stroke-linecap:round;stroke-linejoin:round;stroke-miterlimit:10;"/>
			</g>
			<g>
				<path style="fill:none;stroke:#1E2842;stroke-width:2;stroke-linecap:round;stroke-linejoin:round;stroke-miterlimit:10;" d="
					M246.812,175.881c3.401,8.75,5.822,17.501,7.263,26.251"/>
				<path style="fill:none;stroke:#1E2842;stroke-width:2;stroke-linecap:round;stroke-linejoin:round;stroke-miterlimit:10;" d="
					M192.642,190.774c8.647,7.346,13.871,18.564,13.93,29.91"/>
				<path style="fill:none;stroke:#1E2842;stroke-width:2;stroke-linecap:round;stroke-linejoin:round;stroke-miterlimit:10;" d="
					M188.022,230.172c-3.647-4.73-8.76-8.314-14.451-10.127"/>
			</g>
		</g>
		<g>
			<g>
				
					<path style="fill:#F9D510;stroke:#1E2842;stroke-width:2;stroke-linecap:round;stroke-linejoin:round;stroke-miterlimit:10;" d="
					M274.951,181.133c-6.437,0-11.654,5.216-11.654,11.654c0,6.437,5.216,11.654,11.654,11.654c6.437,0,11.654-5.216,11.654-11.654
					C286.605,186.35,281.389,181.133,274.951,181.133z M274.951,198.971c-3.419,0-6.183-2.765-6.183-6.183
					c0-3.409,2.764-6.174,6.183-6.174c3.409,0,6.174,2.765,6.174,6.174C281.125,196.206,278.361,198.971,274.951,198.971z"/>
				
					<path style="fill:#5187F5;stroke:#1E2842;stroke-width:2;stroke-linecap:round;stroke-linejoin:round;stroke-miterlimit:10;" d="
					M265.896,181.24l9.488,6.951l8.769-5.018c-1.049-11.154-3.419-18.587-7.586-25.75c-4.565-1.721-11.724-2.042-17.388-1.11
					C262.655,165.938,264.993,172.23,265.896,181.24z"/>
			</g>
			<g>
				
					<path style="fill:#F9D510;stroke:#1E2842;stroke-width:2;stroke-linecap:round;stroke-linejoin:round;stroke-miterlimit:10;" d="
					M224.359,187.474c-6.437,0-11.654,5.216-11.654,11.654c0,6.437,5.216,11.654,11.654,11.654c6.437,0,11.654-5.216,11.654-11.654
					C236.012,192.69,230.796,187.474,224.359,187.474z M224.359,205.311c-3.419,0-6.183-2.764-6.183-6.183
					c0-3.409,2.764-6.174,6.183-6.174c3.409,0,6.174,2.764,6.174,6.174C230.532,202.547,227.768,205.311,224.359,205.311z"/>
				
					<path style="fill:#5187F5;stroke:#1E2842;stroke-width:2;stroke-linecap:round;stroke-linejoin:round;stroke-miterlimit:10;" d="
					M211.586,193.775l11.813,1.419l5.231-9.023c-6.468-9.537-13.108-17.903-20.338-22.239c-5.486,1.012-10.934,3.762-16.351,7.949
					C199.786,178.795,206.312,186.1,211.586,193.775z"/>
			</g>
		</g>
		<g>
			<g>
				<g>
					<defs>
						<path id="SVGID_00000109007860041104796430000004895004697469164720_" d="M174.119,406.251
							c6.746-44.663,20.495-93.543,36.097-130.876c0.339-4.9,0.626-7.968,0.914-11.036c-1.331-12.117-3.172-21.94-5.013-31.762
							c7.062-10.413,9.809-20.541,9.747-30.665c22.073-7.261,44.336-10.501,66.543-9.336c4.641,5.467,8.198,11.851,11.381,20.159
							c0.202,11.129-0.195,22.268-1.006,35.001c0.873,2.529,1.5,5.068,2.635,7.3c15.504,3.912,33.2,9.834,47.486,19.91
							c9.047,6.381,11.752,18.665,7.473,28.876c-6.251,14.918-14.64,34.731-20.882,50.551c-14.77,6.61-32.522,8.306-45.96,8.281
							c3.685-17.857,9.88-38.328,16.267-55.061c-12.346-0.669-25.228-1.585-39.811-2.557
							c-11.785,22.211-38.13,89.078-44.829,111.959C200.157,416.28,185.614,413.608,174.119,406.251z"/>
					</defs>
					<use xlink:href="#SVGID_00000109007860041104796430000004895004697469164720_"  style="overflow:visible;fill:#5187F5;"/>
					<clipPath id="SVGID_00000099659081859835714920000011729687177352590233_">
						<use xlink:href="#SVGID_00000109007860041104796430000004895004697469164720_"  style="overflow:visible;"/>
					</clipPath>
					<path style="clip-path:url(#SVGID_00000099659081859835714920000011729687177352590233_);fill:#85BEFF;" d="M301.346,254.888
						c-0.492,3.12-2.553,5.79-4.949,7.847c-2.396,2.058-5.163,3.634-7.687,5.532c-3.699,2.782-7.013,6.333-11.417,7.754
						c9.24-1.079,18.117-4.21,25.931-9.258c9.263,2.565,18.713,6.567,27.095,11.273c3.349,1.881,6.639,3.948,9.362,6.658
						c1.804,1.796,3.352,3.903,4.377,6.222c1.243,2.816,3.87,4.789,6.892,5.379c1.934,0.378,3.901,0.569,5.914,0.544
						c-0.098-12.788-5.93-25.853-15.815-33.967c-9.885-8.114-23.439-11.567-36.001-9.17"/>
					<path style="clip-path:url(#SVGID_00000099659081859835714920000011729687177352590233_);fill:#85BEFF;" d="M339.164,281.171
						c2.942,5.885,7.697,12.215-2.878,37.915c-4.637,11.268-8.65,21.691-8.65,34.075c5.734,0.243,5.21-0.909,10.944-0.666
						c5.318-15.478,10.637-30.958,15.591-46.547c1.25-3.932,2.485-7.924,2.641-12.031c0.155-4.107-0.883-8.407-3.71-11.503
						c-2.827-3.096-7.664-4.673-11.629-3.087"/>
					
						<use xlink:href="#SVGID_00000109007860041104796430000004895004697469164720_"  style="overflow:visible;fill:none;stroke:#1E2842;stroke-width:2;stroke-linecap:round;stroke-linejoin:round;stroke-miterlimit:10;"/>
				</g>
				<g>
					<g>
						<path style="fill:none;stroke:#1E2842;stroke-width:2;stroke-linecap:round;stroke-linejoin:round;stroke-miterlimit:10;" d="
							M292.784,247.736c-20.284,7.112-48.583,8.541-79.45,8.149"/>
						<path style="fill:none;stroke:#1E2842;stroke-width:2;stroke-linecap:round;stroke-linejoin:round;stroke-miterlimit:10;" d="
							M295.418,255.037c-20.284,7.112-48.583,9.655-79.45,9.263"/>
					</g>
					
						<path style="fill:#5187F5;stroke:#1E2842;stroke-width:2;stroke-linecap:round;stroke-linejoin:round;stroke-miterlimit:10;" d="
						M233.87,216.214c16.144-4.643,31.594-6.416,46.352-6.117c2.025,7.781,2.966,14.215,2.47,20.443
						c-4.707,5.539-11.375,9.575-20.226,11.939c-7.452,0.117-15.157-1.658-23.028-4.672
						C236.766,231.661,235.065,224.263,233.87,216.214z"/>
					<path style="fill:none;stroke:#1E2842;stroke-width:2;stroke-linecap:round;stroke-linejoin:round;stroke-miterlimit:10;" d="
						M263.625,262.896c3.398,12.766,2.519,28.721-3.633,42.141"/>
					<path style="fill:none;stroke:#1E2842;stroke-width:2;stroke-linecap:round;stroke-linejoin:round;stroke-miterlimit:10;" d="
						M273.517,261.213c2.823,8.645,4.3,16.847,2.538,23.983c-3.719,3.755-7.644,6.175-11.722,7.572"/>
					<path style="fill:none;stroke:#1E2842;stroke-width:2;stroke-linecap:round;stroke-linejoin:round;stroke-miterlimit:10;" d="
						M234.789,292.115c23.877-4.771,45.005-14.291,62.185-30.629"/>
					<path style="fill:none;stroke:#1E2842;stroke-width:2;stroke-linecap:round;stroke-linejoin:round;stroke-miterlimit:10;" d="
						M302.021,307.523c4.249,1.019,8.703,1.174,13.013,0.454"/>
					<path style="fill:none;stroke:#1E2842;stroke-width:2;stroke-linecap:round;stroke-linejoin:round;stroke-miterlimit:10;" d="
						M302.601,310.769c1.322,4.583,5.128,8.366,9.719,9.659"/>
				</g>
			</g>
			<g>
				
					<path style="fill:#1D324F;stroke:#1E2842;stroke-width:2;stroke-linecap:round;stroke-linejoin:round;stroke-miterlimit:10;" d="
					M208.197,429.319c-1.035,5.207-0.273,11.273-0.957,17.817c-0.186,1.817-0.488,3.673-0.967,5.558
					c-0.528,2.051-1.837,3.829-3.634,4.953c-12.435,7.746-31.239,6.174-38.692-4.015c-0.791-1.084-1.27-2.374-1.397-3.712
					c-0.137-1.446-0.108-2.813,0.059-4.132c0.801-6.496,4.874-11.781,8.704-18.677l10.491-5.128L208.197,429.319z"/>
				
					<path style="fill:#628DA0;stroke:#1E2842;stroke-width:2;stroke-linecap:round;stroke-linejoin:round;stroke-miterlimit:10;" d="
					M207.24,447.137c-0.186,1.817-0.488,3.673-0.967,5.558c-0.528,2.051-1.837,3.829-3.634,4.953
					c-12.435,7.746-31.239,6.174-38.692-4.015c-0.791-1.084-1.27-2.374-1.397-3.712c-0.137-1.446-0.108-2.813,0.059-4.132
					c1.485,1.749,3.292,3.233,5.265,4.406c3.458,2.061,7.404,3.214,11.39,3.741C189.002,455.215,199.152,452.675,207.24,447.137z"/>
			</g>
			<path style="fill:#5187F5;stroke:#1E2842;stroke-width:2;stroke-linecap:round;stroke-linejoin:round;stroke-miterlimit:10;" d="
				M177.008,404.07c12.099,3.648,26.189,6.04,38.248,5.667c2.159-0.067,4.012,1.568,4.249,3.714c0.95,8.586-1.107,15.98-6.648,19.13
				c-15.336,3.125-28.847-13.793-44.124-2.364c-3.292-1.336-3.018-7.99,0-10.7c-0.229-3.632-0.139-7.926,1.107-11.713
				C170.818,404.832,174.012,403.166,177.008,404.07z"/>
		</g>
		<g>
			<path style="fill:#FF911F;stroke:#1E2842;stroke-width:2;stroke-linecap:round;stroke-linejoin:round;stroke-miterlimit:10;" d="
				M327.968,181.943c-1.29-2.063-4.599-3.582-8.053-4.348c-3.58-0.794-7.358,0.53-9.509,3.261
				c-9.885,12.55-12.666,28.292-6.668,41.903c1.963,4.454,4.9,6.387,9.12,6.177c0.82-0.041,1.646-0.159,2.492-0.36
				c10.395,5.421,21.972,2.314,19.561-15.229L327.968,181.943z"/>
			<path style="fill:#FDBBAA;stroke:#1E2842;stroke-width:2;stroke-linecap:round;stroke-linejoin:round;stroke-miterlimit:10;" d="
				M330.242,170.729c-2.081,3.065-8.282,11.034-11.506,12.024c-11.391,23.375-4.385,39.818,10.991,40.389
				c9.146-13.185,16.458-28.309,21.548-43.498L330.242,170.729z"/>
			<g>
				
					<path style="fill:#F9D510;stroke:#1E2842;stroke-width:2;stroke-linecap:round;stroke-linejoin:round;stroke-miterlimit:10;" d="
					M350.367,124.91c-3.574-4.633-5.629-10.406-5.861-16.248c-0.118-2.975-3.156-4.921-5.86-3.674
					c-0.495,0.228-0.965,0.503-1.398,0.818c-2.082,1.519-3.387,3.953-3.857,6.487c-0.47,2.534-0.16,5.163,0.531,7.646
					c0.69,2.483,1.751,4.844,2.808,7.194"/>
				
					<path style="fill:#F9D510;stroke:#1E2842;stroke-width:2;stroke-linecap:round;stroke-linejoin:round;stroke-miterlimit:10;" d="
					M331.82,152.863c-3.552,2.985-6.581,6.592-8.907,10.606c8.821,24.411,21.553,30.188,39.006,13.475l-1.507-21.412"/>
				
					<path style="fill:#F9D510;stroke:#1E2842;stroke-width:2;stroke-linecap:round;stroke-linejoin:round;stroke-miterlimit:10;" d="
					M358.445,168.383c3.722-8.781,4.775-23.005,3.018-34.457c-0.688-4.487-3.945-8.202-8.328-9.382
					c-6.445-1.735-13.188-1.085-18.88,1.483c-2.553,1.152-4.515,3.443-4.984,6.204c-0.437,2.577,0.44,5.125,3.343,6.936
					c-4.497,1.987-4.572,8.124-0.765,10.084c-3.864,2.572-3.109,6.832,0.075,10.042c-6.003,5.073,1.649,12.157,12.165,11.337"/>
				
					<path style="fill:#F9D510;stroke:#1E2842;stroke-width:2;stroke-linecap:round;stroke-linejoin:round;stroke-miterlimit:10;" d="
					M332.615,139.167c5.182-2.614,10.487-2.91,15.29-0.905"/>
				
					<path style="fill:#F9D510;stroke:#1E2842;stroke-width:2;stroke-linecap:round;stroke-linejoin:round;stroke-miterlimit:10;" d="
					M332.144,149.251c5.182-2.614,10.487-2.91,15.29-0.905"/>
				
					<path style="fill:#F9D510;stroke:#1E2842;stroke-width:2;stroke-linecap:round;stroke-linejoin:round;stroke-miterlimit:10;" d="
					M332.144,159.161c5.182-2.614,10.487-2.91,15.29-0.905"/>
			</g>
		</g>
		<g>
			<path style="fill:#FF911F;stroke:#1E2842;stroke-width:2;stroke-linecap:round;stroke-linejoin:round;stroke-miterlimit:10;" d="
				M192.822,246.424c-0.123-3.137-0.67-6.155-1.783-9.016c-0.999-2.566-3.19-4.542-5.868-5.369
				c-15.211-4.697-29.133-3.495-41.488,4.885c-3.237,2.196-5.078,5.903-4.686,9.736c0.321,3.134,1.32,6.21,3.053,9.221
				c-0.616,12.277,6.457,13.392,19.448,9.255L192.822,246.424z"/>
			<path style="fill:#FDBBAA;stroke:#1E2842;stroke-width:2;stroke-linecap:round;stroke-linejoin:round;stroke-miterlimit:10;" d="
				M192.822,245.128c-17.559-6.046-31.129,1.716-42.641,16.605c10.134,5.03,21.379,7.35,33.752,6.924L192.822,245.128z"/>
			<g>
				
					<path style="fill:#F9D510;stroke:#1E2842;stroke-width:2;stroke-linecap:round;stroke-linejoin:round;stroke-miterlimit:10;" d="
					M205.159,246.214c-3.458-3.186-7.494-5.04-11.981-5.853c-13.68,9.739-15.737,23.113-8.877,39.178
					c5.67,0.686,10.934-0.029,15.816-2.058"/>
				
					<path style="fill:#F9D510;stroke:#1E2842;stroke-width:2;stroke-linecap:round;stroke-linejoin:round;stroke-miterlimit:10;" d="
					M199.236,248.465c0,0,8.229-11.359,14.307-15.137c6.078-3.778,22.073-3.182,21.186,1.881c-0.886,5.063-9.821,5.205-11.534,5.879
					c-1.713,0.674-2.625,2.412-2.625,2.412s3.808,0.267,7.44,1.785c6.181,2.583,16.377,16.517,5.123,16.447
					c1.467,1.671,4.486,9.395-3.841,7.416c1.101,1.626,2.991,6.763-3.916,6.271c-6.414-0.457-10.394-1.839-10.394-1.839
					s-11.318,7.839-21.23,1.074"/>
				
					<path style="fill:#F9D510;stroke:#1E2842;stroke-width:2;stroke-linecap:round;stroke-linejoin:round;stroke-miterlimit:10;" d="
					M233.134,261.732c-3.812-5.144-10.617-7.935-18.402-9.955"/>
				
					<path style="fill:#F9D510;stroke:#1E2842;stroke-width:2;stroke-linecap:round;stroke-linejoin:round;stroke-miterlimit:10;" d="
					M229.111,268.995c-3.545-4.695-10.481-6.467-17.777-7.717"/>
				
					<line style="fill:#F9D510;stroke:#1E2842;stroke-width:2;stroke-linecap:round;stroke-linejoin:round;stroke-miterlimit:10;" x1="220.57" y1="243.5" x2="215.324" y2="243.684"/>
			</g>
		</g>
		<path style="fill:none;stroke:#1E2842;stroke-width:2;stroke-linecap:round;stroke-linejoin:round;stroke-miterlimit:10;" d="
			M302.208,305.996"/>
		<g>
			<g>
				
					<path style="fill:#AECCD4;stroke:#1E2842;stroke-width:2;stroke-linecap:round;stroke-linejoin:round;stroke-miterlimit:10;" d="
					M262.625,368.967c-3.531-3.787-7.061-7.574-11.22-11.571c-2.335,6.81-0.402,14.889,4.763,19.904
					C258.429,375.044,260.69,372.787,262.625,368.967z"/>
				
					<path style="fill:#AECCD4;stroke:#1E2842;stroke-width:2;stroke-linecap:round;stroke-linejoin:round;stroke-miterlimit:10;" d="
					M282.166,444.489l-18.506-55.59c-4.562-3.919-9.36-7.66-14.158-11.401c5.337-5.666,9.939-10.014,14.541-14.362
					c-2.427-4.078-5.22-7.592-8.013-11.105c5.232-0.647,10.214,1.039,13.892,4.157c3.187,2.702,4.632,6.924,4.041,11.06
					c-0.663,4.637-1.23,9.201-1.789,13.757c-0.122,0.996-0.027,2.011,0.282,2.966c6.218,19.263,13.542,37.568,22.034,56.467
					C292.459,444.043,288.311,446.344,282.166,444.489z"/>
				
					<path style="fill:#AECCD4;stroke:#1E2842;stroke-width:2;stroke-linecap:round;stroke-linejoin:round;stroke-miterlimit:10;" d="
					M267.754,373.742l-3.621,3.621c-1.149,1.149-3.012,1.149-4.16,0l-0.25-0.25c-1.149-1.149-1.149-3.012,0-4.161l3.621-3.621
					c1.149-1.149,3.012-1.149,4.16,0l0.25,0.25C268.903,370.73,268.903,372.593,267.754,373.742z"/>
			</g>
			
				<polygon style="fill:#FF6464;stroke:#1E2842;stroke-width:2;stroke-linecap:round;stroke-linejoin:round;stroke-miterlimit:10;" points="
				360.426,369.538 329.398,395.578 334.931,427.117 385.801,418.868 391.718,403.219 			"/>
			<path style="fill:#EDD88A;stroke:#1E2842;stroke-width:2;stroke-linecap:round;stroke-linejoin:round;stroke-miterlimit:10;" d="
				M275.523,385.977c15.644-2.183,66.223-8.07,81.737-9.867c2.434-0.282,4.567,1.621,4.567,4.072l0,0
				c0,2.064-1.534,3.805-3.581,4.066l-81.479,10.373c-2,0.255-3.888-0.983-4.453-2.919l-0.151-0.519
				C271.463,388.783,273.048,386.322,275.523,385.977z"/>
			<g>
				
					<polygon style="fill:#C1A056;stroke:#1E2842;stroke-width:2;stroke-linecap:round;stroke-linejoin:round;stroke-miterlimit:10;" points="
					334.468,394.654 334.225,420.608 287.607,426.061 281.425,400.368 				"/>
			</g>
			<g>
				
					<path style="fill:#1D324F;stroke:#1E2842;stroke-width:2;stroke-linecap:round;stroke-linejoin:round;stroke-miterlimit:10;" d="
					M346.4,390.763c-6.838,0.527-13.773,0.44-20.797-0.215c-4.435-0.41-8.762-1.582-12.797-3.468l-5.998-2.803l-4.728,1.963
					c-7.678-0.264-14.096-2.491-19.947-5.578l1.358-7.639l0.02-0.127l46.8-13.412l4.21,5.392l3.751,3.302l4.874,2.755
					c4.249,2.413,7.258,6.516,8.245,11.273l0.273,1.27l0.059,0.283C352.437,387.208,349.936,390.5,346.4,390.763z"/>
				
					<path style="fill:#628DA0;stroke:#1E2842;stroke-width:2;stroke-linecap:round;stroke-linejoin:round;stroke-miterlimit:10;" d="
					M346.4,390.763c-6.838,0.527-13.773,0.44-20.797-0.215c-4.435-0.41-8.762-1.582-12.797-3.468l-5.998-2.803l-4.728,1.963
					c-7.678-0.264-14.096-2.491-19.947-5.578l1.358-7.639c6.004,3.647,12.095,6.745,18.697,6.633l8.528-3.946
					c11.635,6.901,25.108,9.868,40.949,7.766l0.059,0.283C352.437,387.208,349.936,390.5,346.4,390.763z"/>
			</g>
			<path style="fill:#5187F5;stroke:#1E2842;stroke-width:2;stroke-linecap:round;stroke-linejoin:round;stroke-miterlimit:10;" d="
				M285.178,355.222c11.305,0.805,31.046-11.807,47.586-6.564c2.21,1.658,2.734,6.669,0.867,9.872
				c3.054,0.524,3.175,4.378,0.837,5.728c-9.919-3.845-39.987,17.367-52.027,12.034c-3.289-1.457-4.715-6.896-0.835-9.756
				C280.323,362.33,281.273,357.347,285.178,355.222z"/>
			<g>
				
					<polygon style="fill:#F42F4C;stroke:#1E2842;stroke-width:2;stroke-linecap:round;stroke-linejoin:round;stroke-miterlimit:10;" points="
					392.868,404.693 384.419,438.316 297.695,457.901 247.241,450.145 244.604,411.961 269.259,379.882 270.285,379.833 
					275.863,379.549 304.855,413.543 308.01,417.246 384.917,405.582 360.164,369.537 365.937,368.638 				"/>
				
					<polygon style="fill:#FF6464;stroke:#1E2842;stroke-width:2;stroke-linecap:round;stroke-linejoin:round;stroke-miterlimit:10;" points="
					300.752,418.77 297.695,457.902 247.241,450.146 244.604,411.962 269.259,379.883 270.285,379.834 				"/>
			</g>
			<g>
				<g>
					
						<polygon style="fill:#AECCD4;stroke:#1E2842;stroke-width:2;stroke-linecap:round;stroke-linejoin:round;stroke-miterlimit:10;" points="
						303.685,401.787 315.414,434.191 314.656,437.038 317.178,440.417 321.001,439.139 320.63,435.342 318.713,433.423 
						308.988,400.469 					"/>
					<g>
						
							<path style="fill:#F9D510;stroke:#1E2842;stroke-width:2;stroke-linecap:round;stroke-linejoin:round;stroke-miterlimit:10;" d="
							M311.192,398.388c0.681,2.327-1.795,3.112-4.91,3.877c-3.115,0.765-5.687,1.221-6.368-1.106
							c-0.395-1.349,0.097-2.763,1.188-3.858c-3.48-4.165-7.279-11.925-8.933-17.579c-2.456-8.396,0.027-11.416,3.901-12.368
							c3.875-0.952,7.672,0.526,10.128,8.921c1.654,5.654,2.6,14.115,1.859,19.317C309.601,396.039,310.798,397.039,311.192,398.388
							z"/>
						<g>
							<path style="fill:#1E2842;" d="M301.857,377.461c1.274,4.356,4.786,20.695,3.327,21.053
								c-1.459,0.358-7.335-15.4-8.609-19.755c-1.274-4.356-0.433-5.813,1.026-6.172S300.583,373.105,301.857,377.461z"/>
							<path style="fill:#1E2842;" d="M307.576,399.437c0.586,1.827-0.405,1.858-1.498,2.126c-1.093,0.269-1.934,0.647-2.46-1.154
								c-0.584-1.997-0.172-3.834,0.922-4.103C305.632,396.038,306.939,397.453,307.576,399.437z"/>
						</g>
					</g>
				</g>
				
					<path style="fill:#AECCD4;stroke:#1E2842;stroke-width:2;stroke-linecap:round;stroke-linejoin:round;stroke-miterlimit:10;" d="
					M375.567,361.512l-3.98,11.793c-6.02,2.59-10.227,1.272-12.589-4.045l3.589-10.926c0,0-9.293,5.242-10.15,14.982
					c-0.29,3.297,1.38,6.098,3.978,8.036l-17.633,49.663c3.43,0.099,6.917,0.412,10.156,1.38l17.117-48.21
					c3.25-0.162,6.423-1.42,8.635-4.087C381.606,371.772,375.567,361.512,375.567,361.512z"/>
				<g>
					
						<path style="fill:#6295EF;stroke:#1E2842;stroke-width:2;stroke-linecap:round;stroke-linejoin:round;stroke-miterlimit:10;" d="
						M350.912,402.742c-1.808,0.935-3.988,0.757-5.629-0.427l-9.142-6.604l-1.063,6.388l-3.742-0.623l-6.06,41.29l-6.89,1.519
						l8.125-43.613l-0.256-0.042l-1.992-1.305c-1.253-0.826-1.902-2.309-1.656-3.782c-3.086,2.298-7.113,2.832-9.904,1.224
						l2.017-12.114c3.72-0.076,5.549,1.372,8.953,4.487l0.598-3.314l13.089,1.916c0,0-0.243,1.458-0.305,1.834
						c-0.033,0.195,3.435,3.491,6.912,6.727C347.427,399.551,350.912,402.742,350.912,402.742z"/>
				</g>
				<g>
					
						<polygon style="fill:#1D324F;stroke:#1E2842;stroke-width:2;stroke-linecap:round;stroke-linejoin:round;stroke-miterlimit:10;" points="
						412.166,382.651 409.677,385.561 395.61,373.525 364.528,409.854 360.189,406.142 391.271,369.813 383.013,362.748 
						387.993,356.928 403.951,370.581 					"/>
					
						<path style="fill:#F9D510;stroke:#1E2842;stroke-width:2;stroke-linecap:round;stroke-linejoin:round;stroke-miterlimit:10;" d="
						M341.729,434.834l-2.686-2.298c-1.939-1.659-2.166-4.575-0.507-6.514l21.133-24.7c1.659-1.939,4.575-2.166,6.514-0.507
						l2.686,2.298c1.939,1.659,2.166,4.575,0.507,6.514l-21.133,24.7C346.584,436.266,343.668,436.492,341.729,434.834z"/>
				</g>
			</g>
			<g>
				
					<polygon style="fill:#EDD88A;stroke:#1E2842;stroke-width:2;stroke-linecap:round;stroke-linejoin:round;stroke-miterlimit:10;" points="
					384.917,405.582 308.01,417.246 304.855,413.543 374.641,403.716 				"/>
				
					<polygon style="fill:#EDD88A;stroke:#1E2842;stroke-width:2;stroke-linecap:round;stroke-linejoin:round;stroke-miterlimit:10;" points="
					384.917,405.582 379.173,432.953 306.096,448.651 307.434,426.652 308.01,417.246 				"/>
			</g>
		</g>
		<g>
			<g>
				
					<path style="fill:#FF911F;stroke:#1E2842;stroke-width:2;stroke-linecap:round;stroke-linejoin:round;stroke-miterlimit:10;" d="
					M247.795,174.223v-19.281c4.852-0.528,6.039-0.857,8.577-0.325c6.252,1.199,9.998,8.374,13.873,17.919
					c-7.854-3.568-14.291-4.219-18.186,1.028"/>
				
					<path style="fill:#FDBBAA;stroke:#1E2842;stroke-width:2;stroke-linecap:round;stroke-linejoin:round;stroke-miterlimit:10;" d="
					M222.209,152.863c0.542,3.162,0.616,6.391,0.305,10.605c6.485,3.747,14.049,11.824,24.299,12.414
					c2.801-3.641,3.737-10.971,3.405-15.303c-1.909-2.062-3.067-4.692-3.253-7.385C238.511,153.498,230.025,153.052,222.209,152.863
					z"/>
				
					<path style="fill:#FF911F;stroke:#1E2842;stroke-width:2;stroke-linecap:round;stroke-linejoin:round;stroke-miterlimit:10;" d="
					M246.219,175.973c-10.76-1.563-20.005-9.555-24.21-18.681c-1.334,0.032-2.598,0.148-3.789,0.353
					c-5.349,0.917-8.558,5.957-6.874,10.674l8.696,16.335c5.791-8.974,9.128-10.284,18.555-7.347"/>
			</g>
			<g>
				
					<path style="fill:#FDBBAA;stroke:#1E2842;stroke-width:2;stroke-linecap:round;stroke-linejoin:round;stroke-miterlimit:10;" d="
					M257.884,106.964c1.892-7.31,9.983-12.597,17.229-11c6.026,1.327,8.88,7.517,7.95,13.446
					c-1.205,7.684-8.359,12.349-14.82,15.333"/>
				
					<path style="fill:#375F99;stroke:#1E2842;stroke-width:2;stroke-linecap:round;stroke-linejoin:round;stroke-miterlimit:10;" d="
					M259.316,62.014c10.36,11.325,13.054,33.1,7.38,47.361c-3.604-13.651-9.138-31.055-17.214-42.635
					C251.287,65.025,253.485,63.726,259.316,62.014z"/>
				
					<path style="fill:#FDBBAA;stroke:#1E2842;stroke-width:2;stroke-linecap:round;stroke-linejoin:round;stroke-miterlimit:10;" d="
					M196.136,143.407c0,0-28.848-21.243-31.246-38.43c-2.398-17.187,5.424-35.413,19.534-45.515
					c8.73-6.25,19.43-9.413,30.143-10.118c15.21-1.002,28.809,1.614,38.846,13.087c10.153,11.605,14.922,29.762,16.321,46.618
					c7.252,6.832,7.515,18.568,3.018,27.459c-3.215,6.357-12.032,13.626-19.009,17.769c-4.967,2.95-11.212,4.015-16.961,3.452
					C211.303,155.23,196.136,143.407,196.136,143.407z"/>
				
					<path style="fill:#375F99;stroke:#1E2842;stroke-width:2;stroke-linecap:round;stroke-linejoin:round;stroke-miterlimit:10;" d="
					M189.235,131.242c-0.159-5.546-0.317-11.092-0.476-16.638c2.352-9.635,2.804-19.297,1.288-28.777
					c-8.491,7.45-16.982,14.901-26.045,23.215c1.838,6.738,0.733,14.224-2.973,20.143c2.326,1.406,5.419,1.436,7.968,0.226
					c1.137,3.814,3.508,7.249,6.624,9.72C180.021,135.961,184.563,132.99,189.235,131.242z"/>
				
					<path style="fill:#FDBBAA;stroke:#1E2842;stroke-width:2;stroke-linecap:round;stroke-linejoin:round;stroke-miterlimit:10;" d="
					M190.119,126.721c-8.21-2.336-15.847,1.697-16.955,7.684c-0.945,5.105,0.136,10.457,4.237,13.91
					c4.017,3.382,9.681,4.318,14.519,2.239c3.08-1.323,5.813-3.388,8.182-5.734"/>
				<g>
					
						<circle style="fill:#F9D510;stroke:#1E2842;stroke-width:2;stroke-linecap:round;stroke-linejoin:round;stroke-miterlimit:10;" cx="178.773" cy="48.831" r="5.44"/>
					
						<path style="fill:#ED9406;stroke:#1E2842;stroke-width:2;stroke-linecap:round;stroke-linejoin:round;stroke-miterlimit:10;" d="
						M228.667,66.998c19.863-2.598,35.46-1.103,51.428-0.153c0.266-3.525-1.83-4.578-4.114-6.198
						c-11.398-3.156-23.527-3.641-35.14-1.403C236.463,60.087,228.879,63.256,228.667,66.998z"/>
					<g>
						<defs>
							<path id="SVGID_00000023962939975887161660000016836139434430892424_" d="M158.173,108.583
								c1.883,4.714,3.938,9.038,6.016,12.421c13.13-14.98,25.286-28.727,39.506-40.285c14.221-11.558,30.736-20.927,49.718-24.3
								c-2.36-3.174-7.893-7.572-13.998-11.673c-12.332-8.285-28.129-10.046-42.066-4.71c-8.138,3.116-15.811,7.227-22.777,12.254
								C156.661,65.213,150.083,88.33,158.173,108.583z"/>
						</defs>
						<use xlink:href="#SVGID_00000023962939975887161660000016836139434430892424_"  style="overflow:visible;fill:#F9D510;"/>
						<clipPath id="SVGID_00000083058098765605901280000008078768858569029513_">
							<use xlink:href="#SVGID_00000023962939975887161660000016836139434430892424_"  style="overflow:visible;"/>
						</clipPath>
						<path style="clip-path:url(#SVGID_00000083058098765605901280000008078768858569029513_);fill:#ED9406;" d="M162.834,133.944
							c-8.292-7.757-13.699-18.314-16.208-29.388c-2.508-11.074-1.93-23.03,0.03-34.214c7.223-1.468,14.899-0.612,21.621,2.411
							c6.721,3.024,12.519,8.599,16.211,14.978c10.767-10.986,24.29-19.249,38.978-23.817
							c-12.319,17.634-25.533,35.234-39.145,51.891c-5.846,7.153-11.761,14.374-19.083,20.007"/>
						<path style="clip-path:url(#SVGID_00000083058098765605901280000008078768858569029513_);fill:#FFED48;" d="M168.701,55.575
							c7.243-4.067,14.885-7.545,22.971-9.449c8.086-1.904,16.659-2.185,24.656,0.065c7.996,2.251,15.37,7.163,19.821,14.177
							c9.427-3.19,18.82-4.68,28.758-4.126c-10.463-15.834-29.628-25.255-48.599-24.71c-18.971,0.544-37.242,10.716-48.41,26.061"/>
						
							<use xlink:href="#SVGID_00000023962939975887161660000016836139434430892424_"  style="overflow:visible;fill:none;stroke:#1E2842;stroke-width:2;stroke-linecap:round;stroke-linejoin:round;stroke-miterlimit:10;"/>
					</g>
					
						<path style="fill:#F9D510;stroke:#1E2842;stroke-width:2;stroke-linecap:round;stroke-linejoin:round;stroke-miterlimit:10;" d="
						M182.539,100.624c9.516-12.85,20.538-23.976,33.746-35.627c3.539-3.122,7.815-5.285,12.4-6.401
						c10.766-2.623,26.067-2.817,36.815-1.845c3.232,0.293,6.526,0.761,9.405,2.259c2.879,1.498,5.306,4.211,5.19,7.836
						c-5.735-6.437-34.136-7.385-42.224-1.505c-6.315,4.591-12.183,12.09-16.979,18.25c-4.797,6.16-9.839,12.391-16.572,16.343
						C197.586,103.886,188.629,104.464,182.539,100.624z"/>
				</g>
				<g>
					
						<path style="fill:#375F99;stroke:#1E2842;stroke-width:2;stroke-linecap:round;stroke-linejoin:round;stroke-miterlimit:10;" d="
						M202.106,106.938c7.627-1.922,15.932-1.451,23.926,0.937c-4.286-5.133-11.193-8.237-17.854-7.605
						C206.023,101.725,204.253,103.679,202.106,106.938z"/>
					<g>
						<path style="fill:#1E2842;" d="M261.022,107.849c0.992,4.615-1.09,8.977-4.65,9.742c-3.56,0.765-7.251-2.355-8.243-6.971
							c-0.992-4.615,1.09-8.977,4.65-9.742C256.34,100.113,260.03,103.234,261.022,107.849z"/>
						<path style="fill:#FFFFFF;" d="M257.676,105.762c0.329,1.529-0.553,3.016-1.971,3.321c-1.417,0.305-2.833-0.688-3.161-2.218
							c-0.329-1.53,0.553-3.016,1.971-3.321C255.932,103.239,257.347,104.232,257.676,105.762z"/>
					</g>
					<path style="fill:none;stroke:#1E2842;stroke-width:2;stroke-linecap:round;stroke-linejoin:round;stroke-miterlimit:10;" d="
						M227.597,119.387c-6.569-3.156-14.758-1.621-20.025,3.754"/>
					<path style="fill:none;stroke:#EF6C65;stroke-width:2;stroke-linecap:round;stroke-linejoin:round;stroke-miterlimit:10;" d="
						M244.787,102.928c-0.514,4.789-0.512,8.326,2.26,12.727c1.47,0.056,2.934,0.262,4.548,0.771
						c1.945,0.614,3.182,2.54,2.953,4.566c-0.126,1.117-0.378,2.219-0.751,3.279"/>
					
						<path style="fill:#375F99;stroke:#1E2842;stroke-width:2;stroke-linecap:round;stroke-linejoin:round;stroke-miterlimit:10;" d="
						M257.736,80.532c-6.106,1.943-10.936,7.205-12.031,13.709c4.318-5.399,11.249-8.821,18.34-9.054
						C262.903,82.85,260.575,81.078,257.736,80.532z"/>
					<path style="fill:none;stroke:#EF6C65;stroke-width:2;stroke-linecap:round;stroke-linejoin:round;stroke-miterlimit:10;" d="
						M243.505,149.802c-2.037,0.378-4.171,0.217-6.128-0.462"/>
					<g>
						
							<path style="fill:#FFFFFF;stroke:#1E2842;stroke-width:2;stroke-linecap:round;stroke-linejoin:round;stroke-miterlimit:10;" d="
							M258.157,130.746c-9.627,1.475-19.513,1.243-29.244-0.567c-1.516,2.017-1.665,4.872-0.686,7.198
							c0.978,2.326,2.961,4.136,5.221,5.259c2.259,1.123,4.786,1.611,7.301,1.817c4.316,0.354,8.874-0.152,12.51-2.506
							C256.893,139.592,259.338,135.07,258.157,130.746z"/>
						<path style="fill:#1E2842;" d="M229.209,130.74c0.076,2.61,1.063,4.69,3.816,5.742c-1.563,0.096-2.671,1.116-3.529,2.641
							C229.495,139.123,225.449,134.214,229.209,130.74z"/>
						<path style="fill:#1E2842;" d="M257.972,131.086c-0.679,2.495-1.662,4.622-3.996,5.113c1.138,0.388,1.892,1.15,1.605,2.925
							C255.581,139.123,259.017,135.897,257.972,131.086z"/>
					</g>
				</g>
			</g>
		</g>
	</g>
</g>
</svg>
